#define 1a43676c25dc4342eee1fc806214cb83P9ItZh4FOWntcrIz_width 8
#define 1a43676c25dc4342eee1fc806214cb83P9ItZh4FOWntcrIz_height 8
static char 1a43676c25dc4342eee1fc806214cb83P9ItZh4FOWntcrIz_bits[] = {
  0x00, 0x00, 0x00, 0x24, 0x00, 0x00, 0x00, 0x00, };
